<?xml version="1.0" encoding="utf-8"?>
<!-- Generator: Adobe Illustrator 16.0.0, SVG Export Plug-In . SVG Version: 6.00 Build 0)  -->
<!DOCTYPE svg PUBLIC "-//W3C//DTD SVG 1.1//EN" "http://www.w3.org/Graphics/SVG/1.1/DTD/svg11.dtd">
<svg version="1.1" id="Layer_1" xmlns="http://www.w3.org/2000/svg" xmlns:xlink="http://www.w3.org/1999/xlink" x="0px" y="0px"
	 width="2000px" height="972px" viewBox="0 0 2000 972" enable-background="new 0 0 2000 972" xml:space="preserve">
<text transform="matrix(1 3.000000e-05 -3.000000e-05 1 83.626 594.0005)" font-family="'ChunkFive'" font-size="457.3992">COFFEE</text>
<g>
	<text transform="matrix(1 0 0 1 851.5146 210.3843)" font-family="'LeagueGothic-Regular'" font-size="203.2224">GOOD</text>
	<g>
		<g>
			<g>
				<g>
					<path d="M788.337,107.819c0,0,0.657,2.028,1.425,5.89c0.297,1.956,0.736,4.401,0.427,7.492
						c-0.257,3.017-1.281,6.929-3.917,10.325c-1.247,1.701-2.786,3.104-4.401,4.764c-1.792,1.325-3.746,2.791-5.968,3.909
						c-2.292,0.923-4.688,2.171-7.396,2.509c-1.334,0.236-2.731,0.553-4.113,0.659c-1.364-0.028-2.748-0.055-4.146-0.083
						c-11.526-0.401-21.906-6.552-30.154-11.897c-8.566-5.662-14.348-8.92-21.954-10.517c-7.275-1.59-14.625-1.739-20.86-0.844
						c-6.261,0.779-11.482,2.165-15.1,3.249c-3.624,1.186-5.666,1.852-5.666,1.852s1.361-1.611,4.091-4.469
						c2.806-2.724,7.191-6.504,13.647-9.931c6.38-3.502,15.14-6.306,25.488-6.287c5.155,0.029,10.606,0.822,16.238,2.871
						c2.844,0.913,5.129,2.273,7.76,3.496c2.381,1.303,4.658,2.715,6.931,4.119c8.721,5.725,15.318,10.406,21.596,11.978
						c6.111,1.908,12.434,0.756,17.022-2.223c4.405-2.501,6.315-7.577,7.424-11.127C787.75,109.887,788.337,107.819,788.337,107.819
						z"/>
				</g>
			</g>
		</g>
		<g>
			<g>
				<g>
					<path d="M802.316,131.118c0,0-0.896,2.519-2.846,7.231c-1.136,2.239-2.758,4.909-4.796,8.003
						c-2.365,2.786-4.995,6.237-8.858,9.105c-7.366,6.059-18.726,11.052-31.836,11.503c-3.311,0.338-6.558-0.05-9.896-0.488
						c-3.259-0.51-6.969-0.636-10.077-1.64c-3.211-0.914-6.479-1.843-9.79-2.789c-3.158-1.028-6.177-2.154-9.315-3.303
						c-23.558-8.843-46.207-14.926-62.296-15.549c-8.163-0.044-15.098,0.861-19.866,1.766c-4.811,0.944-7.504,1.473-7.504,1.473
						s2.299-1.553,6.401-4.323c4.234-2.65,10.744-6.077,19.759-8.625c18.455-4.523,44.253-2.793,70.208,6.876
						c3.064,1.167,6.093,2.319,9.08,3.456c2.825,1.009,5.612,2.004,8.35,2.982c2.764,1.176,5.279,1.349,7.866,2.141
						c2.564,0.693,5.089,1.429,7.546,1.521c9.865,1.256,18.973-0.269,26.259-3.341c3.763-1.371,6.74-3.482,9.616-5.164
						c2.567-2.002,4.88-3.811,6.68-5.408C800.409,133.066,802.316,131.118,802.316,131.118z"/>
				</g>
			</g>
		</g>
	</g>
	<g>
		<g>
			<g>
				<g>
					<path d="M1195.897,107.819c0,0,0.595,2.068,1.63,5.734c1.113,3.55,3.014,8.63,7.422,11.13c4.584,2.976,10.914,4.127,17.02,2.22
						c6.281-1.571,12.885-6.252,21.604-11.978c2.266-1.404,4.545-2.818,6.928-4.119c2.632-1.222,4.917-2.587,7.757-3.497
						c5.631-2.047,11.089-2.844,16.24-2.87c10.351-0.019,19.106,2.785,25.492,6.287c6.453,3.427,10.837,7.207,13.646,9.931
						c2.729,2.858,4.089,4.469,4.089,4.469s-2.044-0.667-5.668-1.852c-3.62-1.084-8.839-2.467-15.1-3.249
						c-6.229-0.895-13.585-0.747-20.867,0.844c-7.602,1.597-13.388,4.854-21.946,10.517c-8.252,5.345-18.632,11.496-30.161,11.9
						c-1.396,0.027-2.779,0.052-4.145,0.081c-1.376-0.108-2.777-0.423-4.106-0.659c-2.71-0.338-5.106-1.586-7.396-2.506
						c-2.224-1.122-4.175-2.584-5.971-3.913c-1.611-1.658-3.157-3.06-4.404-4.761c-2.631-3.403-3.656-7.311-3.916-10.328
						c-0.309-3.09,0.137-5.536,0.433-7.492C1195.242,109.847,1195.897,107.819,1195.897,107.819z"/>
				</g>
			</g>
		</g>
		<g>
			<g>
				<g>
					<path d="M1181.922,131.118c0,0,1.909,1.948,5.317,5.427c1.797,1.598,4.113,3.406,6.682,5.411
						c2.871,1.683,5.853,3.795,9.609,5.162c7.287,3.073,16.403,4.598,26.264,3.341c2.451-0.092,4.982-0.828,7.54-1.521
						c2.593-0.792,5.106-0.964,7.867-2.144c2.743-0.975,5.527-1.974,8.35-2.979c2.988-1.136,6.014-2.291,9.085-3.456
						c25.953-9.67,51.754-11.4,70.207-6.876c9.016,2.547,15.522,5.975,19.76,8.625c4.101,2.77,6.397,4.323,6.397,4.323
						s-2.691-0.529-7.502-1.473c-4.768-0.905-11.703-1.81-19.866-1.766c-16.088,0.623-38.737,6.706-62.298,15.546
						c-3.137,1.151-6.157,2.276-9.312,3.306c-3.312,0.942-6.577,1.873-9.789,2.786c-3.104,1.006-6.817,1.132-10.077,1.643
						c-3.342,0.438-6.591,0.827-9.899,0.488c-13.104-0.451-24.466-5.444-31.833-11.503c-3.86-2.868-6.498-6.317-8.863-9.105
						c-2.037-3.094-3.655-5.764-4.79-8.003C1182.818,133.637,1181.922,131.118,1181.922,131.118z"/>
				</g>
			</g>
		</g>
	</g>
</g>
<g>
	<g>
		<g>
			<path d="M784.321,838.497c-8.196,0.85-17.775-3.513-18.979-14.301c-0.118-1.079,0.157-2.205,0.039-3.283
				c1.345-54.784,6.834-92.249,22.276-151.865c1.625-6.693,8.355-10.215,15.31-10.792c10.447-0.878,21.688,4.495,22.302,14.977
				c0.55,9.392-5.773,24.733-7.647,34.322c14.936-35.289,36.128-63.105,58.94-64.039c25.871-1.012,32.628,18.539,32.782,31.892
				c-0.067,40.772-38.127,104.799-36.663,126.979c0.2,4.703,2.307,7.495,6.671,7.303c17.128-0.838,44.051-49.188,49.211-56.438
				c2.438-3.653,5.726-6.222,7.784-6.238c1.235-0.01,2.058,0.709,2.057,2.519c0,1.449-0.412,3.621-1.636,6.527
				c-5.285,13.075-33.629,74.092-67.142,75.832c-15.612,0.777-31.133-8.279-32.582-29.946
				c-2.679-32.614,33.985-100.355,33.692-124.478c-0.164-4.702-2.459-8.59-7.205-8.356c-16.237,0.669-51.077,59.337-60.798,126.14
				c-0.331,0.878-0.66,1.756-0.989,2.634c-1.145,10.279-1.971,19.083-2.45,27.126C798.414,833.087,791.743,837.719,784.321,838.497z
				"/>
			<path d="M910.636,911.078c-1.143-39.824,38.933-55.796,79.002-77.144c1.874-10.816,4.205-22.705,7.025-35.298
				c-11.04,19.244-24.506,30.18-40.928,30.124c-23.422-0.028-31.463-14.959-31.74-37.796c-0.6-36.585,19.859-92.578,30.229-137.034
				c1.388-7.237,7.986-10.119,15.846-10.032c11.37,0.11,24.213,7.302,23.872,16.35c-0.46,12.659-7.95,30.946-13.48,50.404
				c-9.281,31.692-18.232,65.657-18.387,79.773c-0.108,8.689,2.215,13.765,8.168,13.832c21.456,0.316,30.261-41.411,51.869-102.522
				c8.12-26.835,14.517-45.724,14.506-45.727c2.091-6.059,9.238-8.607,16.637-8.179c10.896,0.616,22.595,7.247,21.901,15.548
				c-0.236,9.82-9.471,13-43.076,144.254c16.585-12.58,32.552-28.203,46.672-49.625c2.37-3.812,5.869-6.077,7.916-5.91
				c1.638,0.133,2.358,1.282,2.132,3.807c-0.129,1.441-0.732,3.569-2.21,6.354c-18.043,32.293-39.324,52.963-60.081,68.294
				c-22.113,84.812-49.306,115.407-77.944,115.47C930.878,946.012,911.233,930.965,910.636,911.078z M940.144,934.836
				c34.076-0.112,41.979-54.646,45.784-78.543c-27.818,15.572-60.134,33.428-59.562,62.415c0.124,7.964,4.606,12.591,10.117,15.797
				C937.584,934.856,938.681,934.847,940.144,934.836z"/>
			<path d="M1184.582,672.697c-24.541-3.36-64.327,61.315-68.563,106.046c-2.534,24.145,3.811,39.583,24.561,42.003
				c30.743,3.59,64.479-27.399,79.483-45.839c2.686-3.596,5.369-4.621,7.392-4.283c1.619,0.271,2.645,1.545,2.204,4.04
				c-0.251,1.427-0.969,3.141-2.149,5.144c-19.779,28.279-57.637,64.887-101.854,60c-38.586-4.142-51.512-34.504-48.596-71.402
				c3.817-53.765,46.989-117.911,94.021-112.047c9.526,1.184,17.708,5.572,22.335,9.864c18.984,5.566,23.159,25.338,19.995,44.605
				c-4.244,25.743-15.967,46.533-37.949,43.547c-9.39-1.267-17.782-7.034-16.947-13.495c1.81-14.427,29.709-23.184,34.266-52.819
				C1193.913,680.542,1188.879,673.265,1184.582,672.697z"/>
		</g>
	</g>
</g>
</svg>
